<?xml version="1.0" encoding="UTF-8" standalone="no"?>
<!DOCTYPE svg PUBLIC "-//W3C//DTD SVG 1.1//EN"
 "http://www.w3.org/Graphics/SVG/1.1/DTD/svg11.dtd">
<!-- Generated by graphviz version 2.43.0 (0)
 -->
<!-- Title: G Pages: 1 -->
<svg width="531pt" height="674pt"
 viewBox="0.00 0.00 531.20 674.11" xmlns="http://www.w3.org/2000/svg" xmlns:xlink="http://www.w3.org/1999/xlink">
<g id="graph0" class="graph" transform="scale(1 1) rotate(0) translate(4 670.11)">
<title>G</title><style>.edge>path:hover{stroke-width:8}</style>
<polygon fill="white" stroke="transparent" points="-4,4 -4,-670.11 527.2,-670.11 527.2,4 -4,4"/>
<!-- charset_normalizer -->
<g id="node1" class="node">
<title>charset_normalizer</title><style>.edge>path:hover{stroke-width:8}</style>
<ellipse fill="#b65353" stroke="black" cx="72.68" cy="-93.21" rx="64.51" ry="18"/>
<text text-anchor="middle" x="72.68" y="-90.71" font-family="Helvetica,sans-Serif" font-size="10.00" fill="#ffffff">charset_normalizer</text>
</g>
<!-- requests -->
<g id="node3" class="node">
<title>requests</title><style>.edge>path:hover{stroke-width:8}</style>
<polygon fill="blue" stroke="black" points="303.18,-36 244.18,-36 244.18,0 303.18,0 303.18,-36"/>
<text text-anchor="middle" x="273.68" y="-15.5" font-family="Helvetica,sans-Serif" font-size="10.00" fill="white">requests</text>
</g>
<!-- charset_normalizer&#45;&gt;requests -->
<g id="edge1" class="edge">
<title>charset_normalizer&#45;&gt;requests</title><style>.edge>path:hover{stroke-width:8}</style>
<path fill="none" stroke="black" d="M110.49,-78.44C145.83,-65.57 198.39,-46.42 234.25,-33.36"/>
<polygon fill="#b65353" stroke="black" points="235.7,-36.56 243.9,-29.85 233.3,-29.98 235.7,-36.56"/>
</g>
<!-- cryptography -->
<g id="node2" class="node">
<title>cryptography</title><style>.edge>path:hover{stroke-width:8}</style>
<ellipse fill="#80cc33" stroke="black" cx="47.68" cy="-497.69" rx="47.86" ry="18"/>
<text text-anchor="middle" x="47.68" y="-495.19" font-family="Helvetica,sans-Serif" font-size="10.00" fill="#000000">cryptography</text>
</g>
<!-- cryptography&#45;&gt;requests -->
<g id="edge2" class="edge">
<title>cryptography&#45;&gt;requests</title><style>.edge>path:hover{stroke-width:8}</style>
<path fill="none" stroke="black" d="M127.68,-343.05C141.42,-304.36 161.24,-299.66 165.68,-258.84"/>
<path fill="none" stroke="black" d="M165.68,-256.84C169.73,-219.64 160.66,-209.73 165.68,-172.64"/>
</g>
<!-- urllib3_contrib_pyopenssl -->
<g id="node14" class="node">
<title>urllib3_contrib_pyopenssl</title><style>.edge>path:hover{stroke-width:8}</style>
<ellipse fill="#7a49ac" stroke="black" cx="90.68" cy="-257.84" rx="46.84" ry="28.98"/>
<text text-anchor="middle" x="90.68" y="-266.34" font-family="Helvetica,sans-Serif" font-size="10.00" fill="#ffffff">urllib3.</text>
<text text-anchor="middle" x="90.68" y="-255.34" font-family="Helvetica,sans-Serif" font-size="10.00" fill="#ffffff">contrib.</text>
<text text-anchor="middle" x="90.68" y="-244.34" font-family="Helvetica,sans-Serif" font-size="10.00" fill="#ffffff">pyopenssl</text>
</g>
<!-- cryptography&#45;&gt;urllib3_contrib_pyopenssl -->
<g id="edge3" class="edge">
<title>cryptography&#45;&gt;urllib3_contrib_pyopenssl</title><style>.edge>path:hover{stroke-width:8}</style>
<path fill="none" stroke="black" d="M49.23,-479.47C51.63,-459.53 57.55,-426.24 71.68,-401.26 89.05,-370.57 113.93,-377.52 127.68,-345.05"/>
<path fill="none" stroke="black" d="M127.68,-343.05C133.71,-326.07 127.24,-307.7 118.11,-292.46"/>
<polygon fill="#80cc33" stroke="black" points="120.9,-290.34 112.5,-283.88 115.04,-294.17 120.9,-290.34"/>
</g>
<!-- requests___version__ -->
<g id="node4" class="node">
<title>requests___version__</title><style>.edge>path:hover{stroke-width:8}</style>
<ellipse fill="#47c2c2" stroke="black" cx="165.68" cy="-422.48" rx="52.15" ry="21.43"/>
<text text-anchor="middle" x="165.68" y="-425.48" font-family="Helvetica,sans-Serif" font-size="10.00" fill="#000000">requests.</text>
<text text-anchor="middle" x="165.68" y="-414.48" font-family="Helvetica,sans-Serif" font-size="10.00" fill="#000000">__version__</text>
</g>
<!-- requests___version__&#45;&gt;requests -->
<g id="edge4" class="edge">
<title>requests___version__&#45;&gt;requests</title><style>.edge>path:hover{stroke-width:8}</style>
<path fill="none" stroke="black" d="M163.12,-401.06C161.78,-385.49 161.22,-363.63 165.68,-345.05"/>
</g>
<!-- requests_utils -->
<g id="node11" class="node">
<title>requests_utils</title><style>.edge>path:hover{stroke-width:8}</style>
<polygon fill="blue" stroke="black" points="277.18,-362.05 194.18,-362.05 194.18,-326.05 277.18,-326.05 277.18,-362.05"/>
<text text-anchor="middle" x="235.68" y="-341.55" font-family="Helvetica,sans-Serif" font-size="10.00" fill="white">requests.utils</text>
</g>
<!-- requests___version__&#45;&gt;requests_utils -->
<g id="edge5" class="edge">
<title>requests___version__&#45;&gt;requests_utils</title><style>.edge>path:hover{stroke-width:8}</style>
<path fill="none" stroke="black" d="M183.35,-402.19C192.32,-392.39 203.32,-380.38 212.92,-369.9"/>
<polygon fill="#47c2c2" stroke="black" points="215.76,-371.98 219.93,-362.24 210.6,-367.25 215.76,-371.98"/>
</g>
<!-- requests_api -->
<g id="node5" class="node">
<title>requests_api</title><style>.edge>path:hover{stroke-width:8}</style>
<polygon fill="blue" stroke="black" points="415.18,-111.21 338.18,-111.21 338.18,-75.21 415.18,-75.21 415.18,-111.21"/>
<text text-anchor="middle" x="376.68" y="-90.71" font-family="Helvetica,sans-Serif" font-size="10.00" fill="white">requests.api</text>
</g>
<!-- requests_api&#45;&gt;requests -->
<g id="edge6" class="edge">
<title>requests_api&#45;&gt;requests</title><style>.edge>path:hover{stroke-width:8}</style>
<path fill="none" stroke="black" d="M352.53,-75.05C338.71,-65.23 321.2,-52.77 306.18,-42.1"/>
<polygon fill="blue" stroke="black" points="307.86,-39 297.68,-36.06 303.8,-44.7 307.86,-39"/>
</g>
<!-- requests_exceptions -->
<g id="node6" class="node">
<title>requests_exceptions</title><style>.edge>path:hover{stroke-width:8}</style>
<ellipse fill="#24d0d0" stroke="black" cx="382.68" cy="-422.48" rx="49.49" ry="21.43"/>
<text text-anchor="middle" x="382.68" y="-425.48" font-family="Helvetica,sans-Serif" font-size="10.00" fill="#000000">requests.</text>
<text text-anchor="middle" x="382.68" y="-414.48" font-family="Helvetica,sans-Serif" font-size="10.00" fill="#000000">exceptions</text>
</g>
<!-- requests_exceptions&#45;&gt;requests -->
<g id="edge7" class="edge">
<title>requests_exceptions&#45;&gt;requests</title><style>.edge>path:hover{stroke-width:8}</style>
<path fill="none" stroke="black" d="M475.68,-256.84C466.33,-216.87 523.04,-212.62 513.68,-172.64"/>
<path fill="none" stroke="black" d="M513.68,-170.64C503.65,-127.78 475.75,-130.4 450.68,-94.21"/>
</g>
<!-- requests_models -->
<g id="node7" class="node">
<title>requests_models</title><style>.edge>path:hover{stroke-width:8}</style>
<polygon fill="blue" stroke="black" points="347.68,-275.84 285.68,-275.84 285.68,-239.84 347.68,-239.84 347.68,-275.84"/>
<text text-anchor="middle" x="316.68" y="-260.84" font-family="Helvetica,sans-Serif" font-size="10.00" fill="white">requests.</text>
<text text-anchor="middle" x="316.68" y="-249.84" font-family="Helvetica,sans-Serif" font-size="10.00" fill="white">models</text>
</g>
<!-- requests_exceptions&#45;&gt;requests_models -->
<g id="edge8" class="edge">
<title>requests_exceptions&#45;&gt;requests_models</title><style>.edge>path:hover{stroke-width:8}</style>
<path fill="none" stroke="black" d="M353.08,-405.2C333.28,-392.06 310.07,-371.43 305.68,-345.05"/>
</g>
<!-- requests_sessions -->
<g id="node9" class="node">
<title>requests_sessions</title><style>.edge>path:hover{stroke-width:8}</style>
<polygon fill="blue" stroke="black" points="359.68,-189.64 297.68,-189.64 297.68,-153.64 359.68,-153.64 359.68,-189.64"/>
<text text-anchor="middle" x="328.68" y="-174.64" font-family="Helvetica,sans-Serif" font-size="10.00" fill="white">requests.</text>
<text text-anchor="middle" x="328.68" y="-163.64" font-family="Helvetica,sans-Serif" font-size="10.00" fill="white">sessions</text>
</g>
<!-- requests_exceptions&#45;&gt;requests_sessions -->
<g id="edge9" class="edge">
<title>requests_exceptions&#45;&gt;requests_sessions</title><style>.edge>path:hover{stroke-width:8}</style>
<path fill="none" stroke="black" d="M413.09,-405.66C428.56,-396.05 446.24,-382.33 456.68,-365.26 481.75,-324.28 489.05,-304.99 475.68,-258.84"/>
<path fill="none" stroke="black" d="M475.68,-256.84C470.16,-233.26 410.92,-205.18 369.35,-188.14"/>
<polygon fill="#24d0d0" stroke="black" points="370.58,-184.86 359.99,-184.37 367.96,-191.35 370.58,-184.86"/>
</g>
<!-- requests_exceptions&#45;&gt;requests_utils -->
<g id="edge10" class="edge">
<title>requests_exceptions&#45;&gt;requests_utils</title><style>.edge>path:hover{stroke-width:8}</style>
<path fill="none" stroke="black" d="M352.22,-405.64C330.62,-394.41 301.35,-379.19 277.56,-366.82"/>
<polygon fill="#24d0d0" stroke="black" points="278.89,-363.57 268.4,-362.06 275.66,-369.78 278.89,-363.57"/>
</g>
<!-- requests_models&#45;&gt;requests -->
<g id="edge11" class="edge">
<title>requests_models&#45;&gt;requests</title><style>.edge>path:hover{stroke-width:8}</style>
<path fill="none" stroke="black" d="M306.93,-239.84C300.32,-227.3 292.18,-209.59 288.68,-192.85 284.82,-174.4 285.33,-168.98 288.68,-150.43 293.42,-124.18 313.84,-120.56 309.68,-94.21"/>
<path fill="none" stroke="black" d="M309.68,-92.21C306.12,-75.56 297.96,-58.39 290.31,-44.88"/>
<polygon fill="blue" stroke="black" points="293.26,-42.98 285.16,-36.15 287.23,-46.54 293.26,-42.98"/>
</g>
<!-- requests_models&#45;&gt;requests_sessions -->
<g id="edge12" class="edge">
<title>requests_models&#45;&gt;requests_sessions</title><style>.edge>path:hover{stroke-width:8}</style>
<path fill="none" stroke="black" d="M319.11,-239.8C320.75,-228.28 322.96,-212.81 324.84,-199.62"/>
<polygon fill="blue" stroke="black" points="328.31,-200.05 326.26,-189.65 321.38,-199.06 328.31,-200.05"/>
</g>
<!-- requests_packages -->
<g id="node8" class="node">
<title>requests_packages</title><style>.edge>path:hover{stroke-width:8}</style>
<ellipse fill="#53b6b6" stroke="black" cx="237.68" cy="-93.21" rx="43.68" ry="21.43"/>
<text text-anchor="middle" x="237.68" y="-96.21" font-family="Helvetica,sans-Serif" font-size="10.00" fill="#000000">requests.</text>
<text text-anchor="middle" x="237.68" y="-85.21" font-family="Helvetica,sans-Serif" font-size="10.00" fill="#000000">packages</text>
</g>
<!-- requests_packages&#45;&gt;requests -->
<g id="edge13" class="edge">
<title>requests_packages&#45;&gt;requests</title><style>.edge>path:hover{stroke-width:8}</style>
<path fill="none" stroke="black" d="M247.52,-72.21C251.62,-63.87 256.43,-54.09 260.8,-45.19"/>
<polygon fill="#53b6b6" stroke="black" points="264.05,-46.52 265.32,-36 257.77,-43.43 264.05,-46.52"/>
</g>
<!-- requests_sessions&#45;&gt;requests -->
<g id="edge14" class="edge">
<title>requests_sessions&#45;&gt;requests</title><style>.edge>path:hover{stroke-width:8}</style>
<path fill="none" stroke="black" d="M323.51,-153.51C319.09,-138.14 312.95,-114.88 309.68,-94.21"/>
</g>
<!-- requests_sessions&#45;&gt;requests_api -->
<g id="edge15" class="edge">
<title>requests_sessions&#45;&gt;requests_api</title><style>.edge>path:hover{stroke-width:8}</style>
<path fill="none" stroke="black" d="M339.57,-153.3C345.75,-143.46 353.61,-130.95 360.5,-119.98"/>
<polygon fill="blue" stroke="black" points="363.64,-121.55 366,-111.22 357.72,-117.83 363.64,-121.55"/>
</g>
<!-- requests_status_codes -->
<g id="node10" class="node">
<title>requests_status_codes</title><style>.edge>path:hover{stroke-width:8}</style>
<ellipse fill="#3bcece" stroke="black" cx="390.68" cy="-344.05" rx="56.64" ry="21.43"/>
<text text-anchor="middle" x="390.68" y="-347.05" font-family="Helvetica,sans-Serif" font-size="10.00" fill="#000000">requests.</text>
<text text-anchor="middle" x="390.68" y="-336.05" font-family="Helvetica,sans-Serif" font-size="10.00" fill="#000000">status_codes</text>
</g>
<!-- requests_status_codes&#45;&gt;requests -->
<g id="edge16" class="edge">
<title>requests_status_codes&#45;&gt;requests</title><style>.edge>path:hover{stroke-width:8}</style>
<path fill="none" stroke="black" d="M387.68,-256.84C378.97,-209.6 387.07,-194.29 406.68,-150.43 419.63,-121.46 468.19,-120.67 450.68,-94.21"/>
<path fill="none" stroke="black" d="M450.68,-92.21C419.53,-47.23 355.29,-29.82 313.37,-23.13"/>
<polygon fill="#3bcece" stroke="black" points="313.63,-19.63 303.23,-21.65 312.62,-26.56 313.63,-19.63"/>
</g>
<!-- requests_status_codes&#45;&gt;requests_models -->
<g id="edge17" class="edge">
<title>requests_status_codes&#45;&gt;requests_models</title><style>.edge>path:hover{stroke-width:8}</style>
<path fill="none" stroke="black" d="M373.52,-323.52C363.05,-311.61 349.58,-296.28 338.38,-283.53"/>
<polygon fill="#3bcece" stroke="black" points="340.98,-281.19 331.75,-275.99 335.72,-285.81 340.98,-281.19"/>
</g>
<!-- requests_status_codes&#45;&gt;requests_sessions -->
<g id="edge18" class="edge">
<title>requests_status_codes&#45;&gt;requests_sessions</title><style>.edge>path:hover{stroke-width:8}</style>
<path fill="none" stroke="black" d="M391.61,-322.79C392.01,-305.62 391.66,-280.42 387.68,-258.84"/>
<path fill="none" stroke="black" d="M387.68,-256.84C383.49,-234.12 368.46,-212.85 354.61,-197.37"/>
<polygon fill="#3bcece" stroke="black" points="356.94,-194.73 347.55,-189.83 351.83,-199.52 356.94,-194.73"/>
</g>
<!-- requests_utils&#45;&gt;requests -->
<g id="edge19" class="edge">
<title>requests_utils&#45;&gt;requests</title><style>.edge>path:hover{stroke-width:8}</style>
<path fill="none" stroke="black" d="M224.41,-326.01C214.66,-309.48 202.31,-283.36 203.68,-258.84"/>
<path fill="none" stroke="black" d="M203.68,-256.84C205.98,-215.85 160.18,-213.33 165.68,-172.64"/>
</g>
<!-- requests_utils&#45;&gt;requests_models -->
<g id="edge20" class="edge">
<title>requests_utils&#45;&gt;requests_models</title><style>.edge>path:hover{stroke-width:8}</style>
<path fill="none" stroke="black" d="M252.07,-326.01C263.93,-313.68 280.12,-296.85 293.33,-283.12"/>
<polygon fill="blue" stroke="black" points="295.9,-285.49 300.31,-275.86 290.86,-280.64 295.9,-285.49"/>
</g>
<!-- requests_utils&#45;&gt;requests_sessions -->
<g id="edge21" class="edge">
<title>requests_utils&#45;&gt;requests_sessions</title><style>.edge>path:hover{stroke-width:8}</style>
<path fill="none" stroke="black" d="M203.68,-256.84C205.98,-215.89 252.33,-193.52 287.93,-182.33"/>
<polygon fill="blue" stroke="black" points="289.04,-185.65 297.64,-179.46 287.05,-178.94 289.04,-185.65"/>
</g>
<!-- urllib3 -->
<g id="node12" class="node">
<title>urllib3</title><style>.edge>path:hover{stroke-width:8}</style>
<ellipse fill="#7a0ce9" stroke="black" cx="381.68" cy="-569.69" rx="27.84" ry="18"/>
<text text-anchor="middle" x="381.68" y="-567.19" font-family="Helvetica,sans-Serif" font-size="10.00" fill="#ffffff">urllib3</text>
</g>
<!-- urllib3&#45;&gt;requests -->
<g id="edge22" class="edge">
<title>urllib3&#45;&gt;requests</title><style>.edge>path:hover{stroke-width:8}</style>
<path fill="none" stroke="black" d="M364.71,-555.39C348.42,-542.11 323.69,-520.57 305.68,-498.69"/>
<path fill="none" stroke="black" d="M305.68,-496.69C246.97,-425.36 161.07,-516.87 104.68,-443.69 93.17,-428.75 97.11,-418.53 104.68,-401.26 119.48,-367.5 157.07,-380.9 165.68,-345.05"/>
<path fill="none" stroke="black" d="M165.68,-343.05C172.89,-306.32 161.63,-296.05 165.68,-258.84"/>
</g>
<!-- urllib3&#45;&gt;requests_exceptions -->
<g id="edge23" class="edge">
<title>urllib3&#45;&gt;requests_exceptions</title><style>.edge>path:hover{stroke-width:8}</style>
<path fill="none" stroke="black" d="M305.68,-496.69C289.27,-476.75 313.84,-456.72 339.47,-442.67"/>
<polygon fill="#7a0ce9" stroke="black" points="341.26,-445.68 348.51,-437.96 338.03,-439.47 341.26,-445.68"/>
</g>
<!-- urllib3&#45;&gt;requests_models -->
<g id="edge24" class="edge">
<title>urllib3&#45;&gt;requests_models</title><style>.edge>path:hover{stroke-width:8}</style>
<path fill="none" stroke="black" d="M305.68,-421.48C298.6,-388.25 311.25,-378.56 305.68,-345.05"/>
<path fill="none" stroke="black" d="M305.68,-343.05C302.53,-324.08 305.44,-302.58 309.06,-286.06"/>
<polygon fill="#7a0ce9" stroke="black" points="312.55,-286.53 311.49,-275.99 305.74,-284.89 312.55,-286.53"/>
</g>
<!-- urllib3&#45;&gt;requests_utils -->
<g id="edge25" class="edge">
<title>urllib3&#45;&gt;requests_utils</title><style>.edge>path:hover{stroke-width:8}</style>
<path fill="none" stroke="black" d="M305.68,-496.69C285,-471.56 312.46,-455.3 305.68,-423.48"/>
<path fill="none" stroke="black" d="M305.68,-421.48C301.15,-400.2 285.28,-381.97 269.8,-368.65"/>
<polygon fill="#7a0ce9" stroke="black" points="271.76,-365.74 261.8,-362.15 267.35,-371.18 271.76,-365.74"/>
</g>
<!-- urllib3_contrib -->
<g id="node13" class="node">
<title>urllib3_contrib</title><style>.edge>path:hover{stroke-width:8}</style>
<ellipse fill="#8553b6" stroke="black" cx="450.68" cy="-171.64" rx="35.21" ry="21.43"/>
<text text-anchor="middle" x="450.68" y="-174.64" font-family="Helvetica,sans-Serif" font-size="10.00" fill="#ffffff">urllib3.</text>
<text text-anchor="middle" x="450.68" y="-163.64" font-family="Helvetica,sans-Serif" font-size="10.00" fill="#ffffff">contrib</text>
</g>
<!-- urllib3_contrib&#45;&gt;requests -->
<g id="edge26" class="edge">
<title>urllib3_contrib&#45;&gt;requests</title><style>.edge>path:hover{stroke-width:8}</style>
<path fill="none" stroke="black" d="M456.4,-150.39C459.8,-133.89 461.59,-110.7 450.68,-94.21"/>
</g>
<!-- urllib3_contrib_pyopenssl&#45;&gt;requests -->
<g id="edge27" class="edge">
<title>urllib3_contrib_pyopenssl&#45;&gt;requests</title><style>.edge>path:hover{stroke-width:8}</style>
<path fill="none" stroke="black" d="M123,-236.52C142.43,-221.63 163.78,-199.39 165.68,-172.64"/>
<path fill="none" stroke="black" d="M165.68,-170.64C168.85,-126.11 159.03,-108.54 184.68,-72 196.91,-54.58 216.86,-41.93 234.77,-33.38"/>
<polygon fill="#7a49ac" stroke="black" points="236.22,-36.56 243.9,-29.27 233.35,-30.18 236.22,-36.56"/>
</g>
<!-- urllib3_exceptions -->
<g id="node15" class="node">
<title>urllib3_exceptions</title><style>.edge>path:hover{stroke-width:8}</style>
<ellipse fill="#852fdb" stroke="black" cx="409.68" cy="-644.9" rx="49.49" ry="21.43"/>
<text text-anchor="middle" x="409.68" y="-647.9" font-family="Helvetica,sans-Serif" font-size="10.00" fill="#ffffff">urllib3.</text>
<text text-anchor="middle" x="409.68" y="-636.9" font-family="Helvetica,sans-Serif" font-size="10.00" fill="#ffffff">exceptions</text>
</g>
<!-- urllib3_exceptions&#45;&gt;requests -->
<g id="edge28" class="edge">
<title>urllib3_exceptions&#45;&gt;requests</title><style>.edge>path:hover{stroke-width:8}</style>
<path fill="none" stroke="black" d="M513.68,-343.05C481.08,-274.69 530.94,-246.38 513.68,-172.64"/>
</g>
<!-- urllib3_exceptions&#45;&gt;requests_exceptions -->
<g id="edge29" class="edge">
<title>urllib3_exceptions&#45;&gt;requests_exceptions</title><style>.edge>path:hover{stroke-width:8}</style>
<path fill="none" stroke="black" d="M436.91,-626.93C473.89,-601.52 533.25,-550.96 513.68,-498.69"/>
<path fill="none" stroke="black" d="M513.68,-496.69C505.27,-462.65 469.5,-444.17 437.46,-434.29"/>
<polygon fill="#852fdb" stroke="black" points="438.25,-430.88 427.67,-431.49 436.32,-437.61 438.25,-430.88"/>
</g>
<!-- urllib3_exceptions&#45;&gt;requests_models -->
<g id="edge30" class="edge">
<title>urllib3_exceptions&#45;&gt;requests_models</title><style>.edge>path:hover{stroke-width:8}</style>
<path fill="none" stroke="black" d="M513.68,-496.69C497.51,-431.26 541.53,-406.42 513.68,-345.05"/>
<path fill="none" stroke="black" d="M513.68,-343.05C484.82,-282.53 434.93,-314.12 373.68,-286.84 368.26,-284.42 362.6,-281.78 357.04,-279.13"/>
<polygon fill="#852fdb" stroke="black" points="358.37,-275.88 347.84,-274.67 355.32,-282.18 358.37,-275.88"/>
</g>
<!-- urllib3_exceptions&#45;&gt;urllib3 -->
<g id="edge31" class="edge">
<title>urllib3_exceptions&#45;&gt;urllib3</title><style>.edge>path:hover{stroke-width:8}</style>
<path fill="none" stroke="black" d="M402.03,-623.9C398.88,-615.65 395.18,-605.98 391.81,-597.16"/>
<polygon fill="#852fdb" stroke="black" points="395.03,-595.78 388.18,-587.69 388.49,-598.28 395.03,-595.78"/>
</g>
</g>
</svg>
